<svg width="320" height="115" viewBox="0 0 320 115" fill="none" xmlns="http://www.w3.org/2000/svg">
<path d="M12.044 82.2657C11.3076 83.1511 10.5923 84.0686 9.89795 85.0162C9.69557 85.2911 9.50022 85.5756 9.30067 85.8564C8.79193 86.5759 8.29446 87.3125 7.8082 88.0661C7.5974 88.3938 7.38098 88.7141 7.17438 89.0457C6.6024 89.9706 6.05009 90.9238 5.51465 91.8959C5.27152 92.3367 5.03683 92.7889 4.80072 93.2391C4.42409 93.9587 4.0601 94.6934 3.70314 95.4376C3.51482 95.8312 3.31947 96.2175 3.13677 96.6188C3.12834 96.6413 3.1185 96.6602 3.10867 96.6828C3.10445 96.6903 3.10445 96.7017 3.10164 96.7091C1.94221 99.2674 0.898024 101.946 0 104.753L2.58306 106.238C2.89505 105.262 3.24779 104.32 3.59492 103.374L4.59975 111.458C4.71078 112.364 5.29681 113.031 5.98404 113.031H11.6055C11.784 113.031 11.961 112.986 12.1283 112.897L18.8052 109.316L28.2703 111.128C28.9154 111.256 29.5337 110.77 29.7741 109.964L32.4133 101.115L43.2669 92.0222C43.6183 91.7283 43.8544 91.2403 43.9134 90.6903L45.3188 77.5033C45.4214 76.5483 44.9675 75.644 44.269 75.4085L38.8653 73.5982L35.5473 70.7912C35.7777 70.7328 36.0082 70.6706 36.2401 70.6179C36.9821 70.4465 37.7256 70.3033 38.4733 70.1808C38.8344 70.1224 39.197 70.0659 39.561 70.0188C40.2988 69.9228 41.0394 69.8549 41.7801 69.8079C42.1637 69.7834 42.5488 69.7626 42.9352 69.7513C43.7026 69.7288 44.47 69.7324 45.2386 69.7607C45.5225 69.772 45.8064 69.7814 46.0903 69.8003C46.11 69.8021 46.131 69.8021 46.1508 69.8041C46.9349 69.8549 47.7191 69.9435 48.502 70.0489C48.8041 70.0904 49.1062 70.1224 49.407 70.1734C50.1841 70.2995 50.9571 70.469 51.73 70.6499C52.035 70.7214 52.3442 70.778 52.6477 70.859C53.4488 71.07 54.2428 71.33 55.0368 71.5994C56.0543 71.9479 57.0605 72.3397 58.0542 72.7805C58.4898 72.9745 58.9227 73.1781 59.3542 73.389C59.9261 73.6697 60.4953 73.9579 61.0588 74.2687C61.4917 74.508 61.9175 74.7661 62.3434 75.0242C62.4993 75.1184 62.6539 75.2183 62.8099 75.3143L57.5974 77.3112C57.1955 77.4656 56.8652 77.8519 56.6966 78.3642C56.5279 78.8767 56.5392 79.4644 56.7261 79.9655L57.6789 82.5181L52.7743 89.0928C52.2248 89.8294 52.2248 91.02 52.7743 91.7566L58.3957 99.2919C58.6937 99.6913 59.1025 99.8966 59.5284 99.8345C59.9472 99.7799 60.3252 99.4747 60.5585 99.0056L65.7612 88.5408H69.2254V94.9817L60.0962 101.975C59.988 102.057 59.8882 102.159 59.7997 102.278L56.9889 106.046C56.5153 106.68 56.4408 107.675 56.8132 108.423L59.624 114.074L61.9625 111.985L59.7912 107.619L61.6547 105.121L71.3293 97.7095C71.7663 97.376 72.0361 96.7525 72.0361 96.0762V86.657C72.0361 85.617 71.4066 84.7731 70.6308 84.7731H65.0093C64.54 84.7731 64.1015 85.0877 63.8401 85.6114L59.1701 95.0024L55.7536 90.4246L60.3814 84.2212C60.8087 83.6485 60.9155 82.7725 60.6457 82.0472L59.9978 80.3103L66.4582 77.8368C66.5131 77.8801 66.5707 77.916 66.6255 77.9592C66.8405 78.1288 67.0443 78.3172 67.2579 78.4905C67.9409 79.0481 68.6211 79.6151 69.2844 80.2217C69.8901 80.7775 70.4804 81.3577 71.0636 81.9492C71.2196 82.1075 71.3813 82.2507 71.5359 82.4107C76.3099 87.3898 80.3039 93.6178 83.265 100.758L83.2706 100.754C83.2721 100.758 83.2734 100.759 83.2748 100.763L85.7314 98.9339C84.1096 95.0193 82.2011 91.3967 80.0636 88.0868C80.0243 88.0265 79.9807 87.9699 79.9413 87.9078C79.2724 86.8811 78.5851 85.8827 77.8712 84.92C77.7194 84.7148 77.5578 84.5244 77.4046 84.321C76.7933 83.5184 76.1764 82.7254 75.5355 81.9699C75.2924 81.6836 75.038 81.4143 74.7907 81.1335C74.2229 80.4892 73.6537 79.8488 73.0648 79.2421C72.7444 78.9124 72.4114 78.6035 72.0854 78.2833C72.0642 78.2626 72.0446 78.2437 72.0235 78.223L74.7246 69.531L78.9267 57.3274L83.1315 46.0544C83.3029 45.5947 83.3269 45.0598 83.1975 44.5756C83.0682 44.0915 82.7956 43.6995 82.4456 43.4905L82.0648 43.2644L84.5369 36.6352C84.8545 35.7856 84.6493 34.7513 84.059 34.2257L79.8429 30.458L75.6269 26.6904C75.2909 26.3889 74.8736 26.2966 74.4857 26.4379C74.0964 26.5755 73.7704 26.9333 73.5891 27.4157L70.2935 36.2527L69.796 35.9569C69.1059 35.5463 68.3035 35.9344 67.9676 36.8349L63.7515 48.138L59.5354 59.441C59.5284 59.4598 59.5298 59.4787 59.5242 59.4976C59.5185 59.5145 59.5059 59.5258 59.5017 59.5409L57.1252 66.9765L55.1493 52.4124C55.027 51.5156 54.4452 50.8638 53.7664 50.8638H52.0153L49.4955 39.0427C49.3241 38.2345 48.7718 37.677 48.145 37.677H47.9299L45.3146 16.6438C45.3075 16.5835 45.2822 16.5345 45.2696 16.4762C46.1409 15.8356 46.7396 14.6111 46.7396 13.1869V9.41924C46.7396 7.34135 45.4789 5.65154 43.9289 5.65154V0H41.1181V5.65154C39.568 5.65154 38.3074 7.34135 38.3074 9.41924V13.1869C38.3074 14.6111 38.9061 15.8356 39.776 16.478C39.7648 16.5364 39.7394 16.5854 39.731 16.6457L37.1171 37.677H36.902C36.2752 37.677 35.723 38.2345 35.5515 39.0427L33.0316 50.8638H31.2806C30.6018 50.8638 30.0199 51.5156 29.8977 52.4104L27.8726 67.3381L22.7472 50.1631L17.1257 31.3246C17.1187 31.3001 17.1019 31.2831 17.0934 31.2587C17.0344 31.0816 16.9543 30.9214 16.8573 30.7746C16.8348 30.7407 16.8152 30.7048 16.7912 30.6728C16.7773 30.6558 16.7688 30.6332 16.7548 30.6163L4.10647 15.5455C3.70876 15.0727 3.14661 14.9408 2.65052 15.2045C2.15583 15.4701 1.81573 16.0862 1.77216 16.7983L0.3668 39.4044C0.365395 39.4289 0.369611 39.4534 0.369611 39.4779C0.368206 39.5231 0.373827 39.5683 0.373827 39.6135C0.378043 39.8094 0.40334 40.0016 0.451122 40.1825C0.458149 40.2088 0.453932 40.2352 0.462365 40.2597L6.08382 59.0982L12.7508 81.4424C12.6455 81.5649 12.5401 81.6854 12.4347 81.8099C12.3053 81.9625 12.1733 82.1113 12.044 82.2657ZM35.1875 67.0084C36.9119 63.9981 39.6031 62.1669 42.5235 62.1669C45.2232 62.1669 47.7346 63.7437 49.4618 66.3736C49.3241 66.3528 49.1878 66.3491 49.0514 66.3303C48.6523 66.2737 48.2545 66.2191 47.8541 66.1757C47.3621 66.1211 46.8675 66.0797 46.3728 66.0458C46.1128 66.0269 45.8514 66.0006 45.5928 65.9893C45.3174 65.9761 45.0419 65.9799 44.7665 65.9742C44.4868 65.9667 44.2099 65.9347 43.9289 65.9347C43.6604 65.9347 43.3962 65.9686 43.1278 65.9742C43.0041 65.9779 42.879 65.9704 42.7554 65.9742C42.2663 65.9893 41.7801 66.0289 41.2924 66.0646C40.7977 66.1004 40.303 66.1362 39.8097 66.1927C39.5877 66.2191 39.3657 66.2417 39.1436 66.2719C38.6854 66.334 38.2287 66.4188 37.7719 66.498C37.3644 66.5676 36.9554 66.6261 36.5493 66.7108C36.3287 66.756 36.1094 66.8181 35.8888 66.8691C35.6569 66.9217 35.4208 66.95 35.1875 67.0084ZM37.9659 77.1812L42.3577 78.6525L41.2235 89.2906L30.5357 98.2445C30.2828 98.4574 30.086 98.772 29.975 99.1431L27.5746 107.189L18.8305 105.514C18.5845 105.467 18.3372 105.507 18.1095 105.629L11.3356 109.263H7.17579L5.78167 98.0505C5.79713 98.0184 5.81258 97.9883 5.82804 97.9563C6.2609 97.0313 6.71623 96.129 7.18282 95.2416C7.40486 94.8197 7.63112 94.4034 7.8602 93.9908C8.29867 93.1996 8.74981 92.4234 9.21497 91.6642C9.42859 91.3158 9.64778 90.9728 9.86707 90.63C10.3547 89.8708 10.8564 89.1267 11.3708 88.4033C11.5577 88.1396 11.7446 87.8739 11.9357 87.6159C12.5878 86.7305 13.2568 85.8676 13.9469 85.0387C14.0466 84.92 14.1492 84.8051 14.249 84.6883C14.7071 84.1495 15.185 83.6409 15.6586 83.1266C16.371 82.3543 17.1004 81.6177 17.8439 80.9075C18.0857 80.6757 18.3245 80.4384 18.5705 80.2142C19.3476 79.5022 20.1445 78.8333 20.9512 78.1891C21.1648 78.0196 21.3714 77.8368 21.5864 77.671C22.58 76.9081 23.5933 76.1941 24.6304 75.5348C24.7077 75.4858 24.7864 75.4368 24.8651 75.3878C25.9064 74.7341 26.9675 74.1331 28.0482 73.5868C28.6174 73.2986 29.1993 73.048 29.7783 72.7918C30.4191 72.5074 31.0656 72.2474 31.7148 72.0025L37.5598 76.9477C37.6834 77.0531 37.8212 77.1322 37.9659 77.1812ZM59.4132 69.3802L61.4973 62.8621L71.6384 69.659L69.6611 76.0226C69.3589 75.7627 69.0469 75.5328 68.742 75.2842C68.4342 75.0336 68.1264 74.7812 67.8144 74.5382C67.6907 74.4422 67.5713 74.3385 67.4477 74.2442C67.4125 74.2179 67.3802 74.1859 67.3451 74.1595C67.3436 74.1595 67.3422 74.1595 67.3409 74.1576C66.8546 73.7903 66.3585 73.455 65.8638 73.1121C65.6502 72.9633 65.4394 72.8088 65.2229 72.6638C64.4008 72.1136 63.5674 71.5975 62.7242 71.1114C62.6539 71.07 62.5837 71.0248 62.5134 70.9853C61.4931 70.4069 60.463 69.8625 59.4132 69.3802ZM79.493 41.7328L77.465 40.5253L79.6083 34.7777L81.4675 36.4392L79.493 41.7328ZM75.3922 31.0081L77.2514 32.6697L74.8933 38.9919L72.8653 37.7843L75.3922 31.0081ZM69.6217 40.8286C69.6948 40.9322 69.7595 41.0452 69.8522 41.1281L74.0683 44.8959L78.2843 48.6635C78.4727 48.833 78.6891 48.9159 78.9098 48.9499L77.0027 54.0627L73.6439 52.062L66.9262 48.0588L69.6217 40.8286ZM65.6656 51.4328L67.3521 52.4369L75.7842 57.4611L72.7725 66.206L62.6778 59.441L65.6656 51.4328ZM41.1181 9.41924H43.9289L43.9302 13.1869H41.1181V9.41924ZM42.3085 18.8385H42.7385L45.0813 37.677H39.9671L42.3085 18.8385ZM37.9617 41.4446H38.3074H46.7396H47.0853L49.0936 50.8638H35.9549L37.9617 41.4446ZM32.4526 54.6316H34.0913H50.9557H52.5944L54.3356 67.4719C54.1922 67.4285 54.0461 67.4022 53.9027 67.3626C53.6709 67.2966 53.439 67.2289 53.2057 67.1667C51.144 61.8222 47.0487 58.3993 42.5235 58.3993C37.7045 58.3993 33.3648 62.2292 31.4534 68.1557C31.2567 68.2273 31.0642 68.3121 30.8688 68.3856C30.7704 68.4232 30.672 68.4496 30.5737 68.4872L32.4526 54.6316ZM25.6324 70.8176C25.0731 71.1265 24.5207 71.4524 23.9727 71.7897C23.7858 71.9046 23.5975 72.0156 23.4105 72.1343C22.4718 72.7315 21.5484 73.3664 20.6434 74.0408C20.545 74.1143 20.4508 74.1916 20.3525 74.2651C20.33 74.282 20.3075 74.3008 20.2836 74.3177C20.2457 74.346 20.2092 74.3761 20.1726 74.4044C19.3701 75.0185 18.5832 75.6647 17.8102 76.3391C17.7132 76.4239 17.6135 76.5068 17.5164 76.5916C16.6705 77.3433 15.8427 78.1269 15.0346 78.9501L9.21634 59.4486L20.6602 53.3129L25.846 70.6895C25.773 70.729 25.7041 70.778 25.6324 70.8176ZM3.59492 40.6101L15.0388 34.4744L19.6161 49.8127L8.17219 55.9503L3.59492 40.6101ZM4.34117 20.8655L13.1893 31.4075L3.35742 36.6784L4.34117 20.8655Z" fill="#FC4C69"/>
<path d="M11.6055 39.5607C9.28102 39.5607 7.3894 42.0964 7.3894 45.2123C7.3894 48.3282 9.28102 50.8638 11.6055 50.8638C13.9299 50.8638 15.8216 48.3282 15.8216 45.2123C15.8216 42.0964 13.9299 39.5607 11.6055 39.5607ZM11.6055 47.0961C10.8312 47.0961 10.2001 46.2502 10.2001 45.2123C10.2001 44.1743 10.8312 43.3284 11.6055 43.3284C12.3799 43.3284 13.0109 44.1743 13.0109 45.2123C13.0109 46.2502 12.3799 47.0961 11.6055 47.0961Z" fill="#FC4C69"/>
<path d="M123.446 64.721C123.446 65.7569 123.568 66.6228 123.812 67.3183C124.055 68.0138 124.624 68.3617 125.517 68.3617C125.924 68.3617 126.309 68.3321 126.675 68.2729V73.867C125.944 73.9854 125.264 74.0446 124.634 74.0446C123.334 74.0446 122.284 73.8893 121.482 73.5785C120.68 73.2676 120.055 72.6683 119.608 71.7803C119.162 70.8924 118.939 69.6197 118.939 67.962V54.4207H116.898V48.6044H118.939V42.0779H123.446V48.6044H126.797V54.4207H123.446V64.721ZM138.279 55.3752C137.406 55.6859 136.604 56.4185 135.873 57.5729C135.142 58.7272 134.776 60.4144 134.776 62.6343V73.4231H130.238V49.004H134.776V52.2451C135.527 50.7947 136.447 49.8106 137.533 49.2926C138.619 48.7746 139.609 48.5304 140.502 48.56V55.0422C139.894 54.9534 139.153 55.0644 138.279 55.3752ZM155.609 70.9812C155.223 71.7508 154.558 72.4389 153.615 73.0457C152.67 73.6525 151.64 73.9559 150.523 73.9559C148.797 73.9559 147.3 73.3935 146.03 72.2687C144.761 71.144 143.792 69.6123 143.122 67.6735C142.451 65.7348 142.117 63.5815 142.117 61.2136C142.117 58.8456 142.451 56.6923 143.122 54.7536C143.792 52.8149 144.761 51.2831 146.03 50.1584C147.3 49.0336 148.797 48.4712 150.523 48.4712C151.681 48.4712 152.701 48.7599 153.584 49.337C154.468 49.9142 155.142 50.6468 155.609 51.5347V49.004H160.117V73.4231H155.609V70.9812ZM154.544 56.2187C153.711 54.9312 152.594 54.2874 151.193 54.2874C149.772 54.2874 148.65 54.9312 147.828 56.2187C147.005 57.5063 146.594 59.1712 146.594 61.2136C146.594 63.1966 147.015 64.8394 147.858 66.1418C148.701 67.4441 149.812 68.0953 151.193 68.0953C152.615 68.0953 153.736 67.4811 154.558 66.2527C155.381 65.0244 155.792 63.3447 155.792 61.2136C155.792 59.1712 155.376 57.5063 154.544 56.2187ZM162.492 49.0928H167.549L171.448 61.036L175.346 49.0928H180.433L171.448 74.4887L162.492 49.0928ZM186.447 72.8459C185.057 72.0467 183.864 70.6925 182.869 68.7835C181.874 66.8744 181.376 64.3806 181.376 61.3023C181.376 58.2241 181.879 55.7377 182.884 53.8434C183.89 51.9491 185.092 50.6024 186.494 49.8032C187.894 49.004 189.224 48.6044 190.483 48.6044C191.945 48.6044 193.336 49.078 194.656 50.0251C195.976 50.9723 197.057 52.3635 197.899 54.1986C198.742 56.0338 199.184 58.2093 199.225 60.7252C199.225 61.4947 199.215 62.1607 199.194 62.7231C199.174 63.2855 199.154 63.6407 199.133 63.7886H185.915C186.159 65.5054 186.767 66.6745 187.742 67.296C188.717 67.9177 189.63 68.2285 190.483 68.2285C191.58 68.2285 192.453 67.9399 193.103 67.3627C193.752 66.7855 194.311 66.1269 194.777 65.387L198.311 68.3617C196.402 72.1503 193.793 74.0446 190.483 74.0446C189.184 74.0446 187.839 73.6451 186.447 72.8459ZM187.377 55.7748C186.585 56.6776 186.138 57.78 186.037 59.0824H194.412C194.352 58.3128 194.148 57.5729 193.803 56.8626C193.458 56.1522 192.996 55.5675 192.418 55.1088C191.839 54.65 191.184 54.4207 190.453 54.4207C189.194 54.4207 188.169 54.872 187.377 55.7748ZM202.94 39.858H207.509V73.4231H202.94V39.858ZM211.895 39.858H216.463V73.4231H211.895V39.858ZM233.52 70.9812C233.134 71.7508 232.469 72.4389 231.525 73.0457C230.58 73.6525 229.55 73.9559 228.433 73.9559C226.707 73.9559 225.21 73.3935 223.941 72.2687C222.672 71.144 221.703 69.6123 221.032 67.6735C220.362 65.7348 220.027 63.5815 220.027 61.2136C220.027 58.8456 220.362 56.6923 221.032 54.7536C221.703 52.8149 222.672 51.2831 223.941 50.1584C225.21 49.0336 226.707 48.4712 228.433 48.4712C229.591 48.4712 230.611 48.7599 231.494 49.337C232.378 49.9142 233.053 50.6468 233.52 51.5347V49.004H238.028V73.4231H233.52V70.9812ZM232.454 56.2187C231.621 54.9312 230.504 54.2874 229.103 54.2874C227.682 54.2874 226.56 54.9312 225.738 56.2187C224.915 57.5063 224.505 59.1712 224.505 61.2136C224.505 63.1966 224.926 64.8394 225.768 66.1418C226.611 67.4441 227.723 68.0953 229.103 68.0953C230.525 68.0953 231.647 67.4811 232.469 66.2527C233.292 65.0244 233.702 63.3447 233.702 61.2136C233.702 59.1712 233.286 57.5063 232.454 56.2187ZM256.561 51.2683C257.606 53.0738 258.129 55.649 258.129 58.9936V73.4231H253.47V58.9936C253.47 55.7082 252.393 54.0655 250.241 54.0655C249.409 54.0655 248.657 54.5463 247.987 55.5083C247.317 56.4703 247.003 58.1352 247.043 60.5032V73.4231H242.505V49.004H247.043V51.1795C247.591 50.3803 248.282 49.744 249.114 49.2704C249.946 48.7968 250.749 48.56 251.52 48.56C253.835 48.56 255.515 49.4628 256.561 51.2683ZM275.277 70.9812C274.891 71.7508 274.227 72.4389 273.282 73.0457C272.338 73.6525 271.307 73.9559 270.191 73.9559C268.465 73.9559 266.967 73.3935 265.698 72.2687C264.429 71.144 263.459 69.6123 262.789 67.6735C262.12 65.7348 261.785 63.5815 261.785 61.2136C261.785 58.8456 262.12 56.6923 262.789 54.7536C263.459 52.8149 264.429 51.2831 265.698 50.1584C266.967 49.0336 268.465 48.4712 270.191 48.4712C271.348 48.4712 272.368 48.7599 273.252 49.337C274.135 49.9142 274.81 50.6468 275.277 51.5347V39.858H279.784V73.4231H275.277V70.9812ZM274.211 56.2187C273.378 54.9312 272.262 54.2874 270.86 54.2874C269.44 54.2874 268.317 54.9312 267.495 56.2187C266.673 57.5063 266.262 59.1712 266.262 61.2136C266.262 63.1966 266.683 64.8394 267.526 66.1418C268.368 67.4441 269.48 68.0953 270.86 68.0953C272.282 68.0953 273.404 67.4811 274.227 66.2527C275.049 65.0244 275.46 63.3447 275.46 61.2136C275.46 59.1712 275.043 57.5063 274.211 56.2187ZM288.024 72.291C286.632 71.1514 285.531 69.6048 284.719 67.6513C283.906 65.6977 283.5 63.5666 283.5 61.258C283.5 58.9788 283.906 56.8626 284.719 54.9089C285.531 52.9554 286.632 51.4089 288.024 50.2693C289.414 49.1298 290.932 48.56 292.577 48.56C294.221 48.56 295.744 49.1298 297.146 50.2693C298.547 51.4089 299.658 52.9554 300.48 54.9089C301.303 56.8626 301.714 58.9788 301.714 61.258C301.714 63.5666 301.303 65.6977 300.48 67.6513C299.658 69.6048 298.547 71.1514 297.146 72.291C295.744 73.4305 294.221 74.0002 292.577 74.0002C290.932 74.0002 289.414 73.4305 288.024 72.291ZM290.262 55.2864C289.552 55.8932 288.993 56.7219 288.587 57.7726C288.181 58.8235 287.977 59.9852 287.977 61.258C287.977 62.5898 288.175 63.7812 288.571 64.832C288.968 65.8827 289.516 66.7115 290.216 67.3183C290.917 67.9251 291.704 68.2285 292.577 68.2285C293.43 68.2285 294.207 67.9251 294.907 67.3183C295.607 66.7115 296.16 65.8753 296.566 64.8098C296.973 63.7442 297.176 62.5603 297.176 61.258C297.176 59.9852 296.973 58.8235 296.566 57.7726C296.16 56.7219 295.607 55.8932 294.907 55.2864C294.207 54.6796 293.43 54.3762 292.577 54.3762C291.744 54.3762 290.973 54.6796 290.262 55.2864Z" fill="white"/>
</svg>
