<svg width="32" height="29" viewBox="0 0 32 29" fill="none" xmlns="http://www.w3.org/2000/svg">
<path d="M25.5342 0H6.16365C2.76458 0 0 2.47174 0 5.51077V22.8295C0 25.8686 2.76458 28.3403 6.16365 28.3403H25.5342C28.9333 28.3403 31.6979 25.8686 31.6979 22.8295V5.51077C31.6979 2.47174 28.9333 0 25.5342 0ZM29.0564 22.8295C29.0564 24.5659 27.4763 25.9786 25.5342 25.9786H6.16365C4.22163 25.9786 2.64149 24.5659 2.64149 22.8295V5.51077C2.64149 3.77446 4.22163 2.36169 6.16365 2.36169H25.5342C27.4763 2.36169 29.0564 3.77446 29.0564 5.51077V22.8295Z" fill="white"/>
<path d="M15.849 18.185C19.6939 18.185 22.8225 15.3878 22.8225 11.9501C22.8225 8.51247 19.6939 5.71529 15.849 5.71529C12.004 5.71529 8.87543 8.51247 8.87543 11.9501C8.87543 15.3878 12.004 18.185 15.849 18.185ZM15.849 8.07698C18.2374 8.07698 20.181 9.81471 20.181 11.9501C20.181 14.0856 18.2374 15.8233 15.849 15.8233C13.4605 15.8233 11.5169 14.0856 11.5169 11.9501C11.5169 9.81471 13.4605 8.07698 15.849 8.07698Z" fill="white"/>
<path d="M14.2778 14.2991C15.1455 14.2991 15.8489 13.6701 15.8489 12.8944C15.8489 12.1186 15.1455 11.4897 14.2778 11.4897C13.41 11.4897 12.7066 12.1186 12.7066 12.8944C12.7066 13.6701 13.41 14.2991 14.2778 14.2991Z" fill="white"/>
<path d="M25.305 18.3976C25.7112 17.4203 25.9442 16.3685 25.9442 15.2664C25.9442 14.6142 25.3531 14.0856 24.6235 14.0856C23.8939 14.0856 23.3027 14.6142 23.3027 15.2664C23.3027 18.9413 19.9591 21.9307 15.849 21.9307C11.7388 21.9307 8.39521 18.9413 8.39521 15.2664C8.39521 14.6142 7.80405 14.0856 7.07447 14.0856C6.34489 14.0856 5.75372 14.6142 5.75372 15.2664C5.75372 20.2435 10.2823 24.2924 15.849 24.2924C17.0276 24.2924 18.155 24.1016 19.2074 23.7681C19.2718 23.9036 19.3637 24.0311 19.4874 24.1417C20.3126 24.8795 21.4093 25.2857 22.5758 25.2857C23.7423 25.2857 24.839 24.8795 25.6637 24.1422C26.4889 23.4048 26.9432 22.4243 26.9432 21.3814C26.9432 20.3384 26.4889 19.3579 25.6637 18.6201C25.557 18.5246 25.4344 18.4534 25.305 18.3976ZM23.7956 22.472C23.2256 22.9826 22.2831 23.0459 21.619 22.6619C22.5483 22.0813 23.3587 21.3629 24.0233 20.5425C24.203 20.7905 24.3017 21.0791 24.3017 21.3814C24.3017 21.7933 24.1221 22.1806 23.7956 22.472Z" fill="white"/>
</svg>
